<?xml version="1.0" standalone="no"?>
<!DOCTYPE svg PUBLIC "-//W3C//DTD SVG 20010904//EN"
 "http://www.w3.org/TR/2001/REC-SVG-20010904/DTD/svg10.dtd">
<svg version="1.0" xmlns="http://www.w3.org/2000/svg"
 width="880.000000pt" height="880.000000pt" viewBox="0 0 880.000000 880.000000"
 preserveAspectRatio="xMidYMid meet">
<metadata>
Created by potrace 1.14, written by Peter Selinger 2001-2017
</metadata>
<g transform="translate(0.000000,880.000000) scale(0.100000,-0.100000)"
fill="#000000" stroke="none">
<path d="M6585 8662 c-3 -3 -13 -7 -22 -8 -27 -4 -93 -36 -93 -46 0 -4 -5 -8
-10 -8 -21 0 -83 -66 -104 -110 l-21 -45 -2 -2485 c-2 -2466 -2 -2485 18
-2545 24 -69 76 -125 155 -165 41 -21 63 -25 134 -25 71 1 94 5 142 28 69 33
131 100 149 164 12 40 14 448 14 2528 0 2412 -1 2481 -19 2531 -40 108 -147
183 -270 189 -36 1 -68 0 -71 -3z"/>
<path d="M2128 7015 c-2 -2 -32 -6 -68 -9 -77 -6 -138 -15 -162 -22 -10 -3
-30 -7 -45 -10 -31 -5 -176 -50 -208 -63 -11 -5 -38 -17 -60 -27 -22 -10 -43
-18 -47 -19 -4 0 -13 -6 -19 -12 -7 -7 -17 -13 -21 -13 -8 0 -109 -60 -118
-70 -3 -3 -31 -24 -63 -48 -186 -139 -355 -380 -433 -618 -52 -159 -68 -274
-69 -489 0 -170 7 -255 27 -330 5 -22 12 -51 15 -64 7 -43 60 -186 91 -248 51
-102 83 -155 148 -238 93 -120 136 -162 301 -295 7 -6 17 -10 23 -10 5 0 10
-4 10 -8 0 -4 30 -23 68 -42 37 -19 69 -38 72 -41 3 -3 32 -16 65 -29 33 -13
66 -28 73 -33 6 -5 12 -7 12 -4 0 4 19 -1 43 -9 48 -17 195 -49 277 -60 30 -4
127 -7 215 -8 182 -1 248 6 395 41 36 8 70 16 75 18 6 1 19 5 30 10 11 4 52
19 90 33 39 15 72 30 73 34 2 5 10 8 18 8 13 0 52 18 64 30 3 3 16 11 30 19
166 91 382 307 485 486 95 164 163 360 181 525 15 137 9 384 -12 479 -3 14 -7
35 -9 46 -4 27 -24 104 -35 135 -10 30 -17 52 -19 62 -2 10 -54 118 -71 148
-8 14 -14 28 -15 32 0 3 -28 48 -61 100 -58 88 -138 184 -194 234 -14 13 -38
35 -55 49 -49 43 -192 135 -284 181 -77 39 -233 98 -286 107 -11 2 -31 7 -45
10 -24 6 -57 12 -125 22 -36 6 -352 14 -357 10z m267 -619 c95 -11 130 -18
203 -42 187 -63 339 -191 419 -354 42 -85 50 -105 56 -140 3 -14 8 -36 11 -50
25 -108 22 -337 -7 -425 -3 -11 -8 -33 -11 -48 -3 -16 -14 -48 -25 -71 -12
-23 -21 -45 -21 -49 0 -3 -11 -23 -25 -44 -14 -21 -31 -47 -38 -57 -39 -63
-200 -206 -231 -206 -5 0 -17 -6 -25 -13 -20 -17 -87 -41 -171 -61 -224 -53
-501 -32 -680 51 -223 105 -360 284 -410 537 -15 75 -15 371 0 371 1 0 3 11 6
25 15 84 77 217 138 295 41 54 138 145 154 145 6 0 12 3 12 8 0 4 19 17 43 29
61 32 137 63 137 56 0 -3 6 0 13 6 8 6 29 13 48 15 19 3 34 5 34 6 0 3 41 9
83 13 23 2 44 6 46 8 6 5 180 2 241 -5z"/>
<path d="M2126 3785 c-103 -42 -148 -93 -170 -194 -12 -52 -21 -246 -30 -597
-2 -67 -6 -127 -10 -133 -4 -6 -3 -11 1 -11 5 0 7 -17 5 -37 -6 -80 -7 -1060
-1 -1091 4 -17 3 -35 -2 -38 -5 -3 -7 -10 -3 -15 3 -5 7 -107 9 -227 4 -215
12 -507 19 -672 2 -47 7 -98 11 -115 10 -37 43 -104 60 -122 7 -7 15 -16 17
-21 8 -19 77 -61 123 -74 152 -43 305 19 370 147 28 57 30 66 29 175 -1 63 -4
167 -8 230 -16 281 -30 680 -26 740 1 14 1 32 1 40 -1 8 -1 26 0 40 0 14 0 32
0 40 -1 8 -1 26 0 40 0 14 0 32 0 40 -1 8 -1 26 0 40 0 14 0 32 0 40 -1 8 -1
26 0 40 0 14 0 32 0 40 -1 8 -1 26 0 40 0 14 0 32 0 40 -1 8 -1 26 0 40 0 14
0 31 0 38 -2 18 -2 48 -2 132 0 41 0 82 0 90 -1 36 12 611 15 675 2 39 7 120
12 180 14 191 11 243 -17 305 -27 57 -84 120 -131 144 -71 37 -196 42 -272 11z"/>
<path d="M6547 2624 c-1 -1 -34 -4 -72 -8 -84 -8 -114 -12 -180 -28 -27 -7
-52 -12 -55 -13 -3 0 -11 -4 -17 -8 -7 -5 -13 -6 -13 -2 0 3 -15 -1 -32 -8
-18 -8 -37 -15 -43 -17 -67 -18 -203 -89 -297 -155 -150 -105 -296 -278 -377
-445 -37 -75 -86 -225 -96 -290 -3 -25 -10 -70 -15 -100 -10 -59 -6 -389 5
-430 3 -14 9 -38 12 -55 27 -147 91 -302 177 -430 49 -71 81 -109 160 -184 33
-31 70 -66 83 -78 13 -13 26 -23 30 -23 3 0 26 -15 52 -33 69 -51 173 -104
268 -137 86 -31 93 -32 178 -50 84 -18 98 -20 160 -26 122 -12 221 -10 425 11
14 2 45 8 70 15 25 7 52 13 60 15 77 15 310 120 349 156 11 11 23 19 27 19 29
0 272 235 311 300 9 17 21 30 25 30 4 0 8 4 8 10 0 5 15 33 33 62 45 71 73
135 104 232 14 44 28 88 30 96 3 8 7 29 9 45 2 17 6 41 10 55 11 43 13 322 2
390 -5 36 -11 74 -12 85 -23 145 -111 350 -206 477 -69 91 -193 213 -287 280
-74 53 -253 154 -253 143 0 -3 -13 1 -29 10 -29 14 -150 50 -204 59 -15 3 -35
7 -45 10 -44 12 -343 30 -355 20z m183 -588 c111 -7 180 -25 303 -79 15 -6 27
-15 27 -19 0 -5 5 -8 11 -8 11 0 64 -40 114 -86 27 -25 89 -112 113 -161 56
-110 80 -295 58 -452 -19 -131 -94 -270 -198 -366 -79 -72 -94 -83 -151 -110
-93 -43 -134 -53 -267 -70 -110 -14 -319 5 -398 37 -131 52 -220 114 -286 202
-36 47 -94 160 -101 196 -2 8 -4 16 -5 18 -2 1 -4 7 -5 12 -1 6 -3 11 -4 13
-7 8 -14 108 -14 202 0 114 27 275 46 275 6 0 7 3 4 7 -8 7 63 143 75 143 4 0
8 4 8 9 0 12 76 89 116 117 91 65 230 110 369 120 44 3 82 8 83 9 2 2 9 2 15
0 7 -2 46 -6 87 -9z"/>
</g>
</svg>
