<svg width="800" height="800" viewBox="0 0 800 800" fill="none" xmlns="http://www.w3.org/2000/svg">
<rect width="800" height="800" fill="#946CF4"/>
<g clip-path="url(#clip0_1106_170)">
<path d="M537.333 405.854H511.292V411.063H537.333V405.854Z" fill="white"/>
<path d="M537.333 392.834L532.125 387.625L526.917 392.834H529.521V400.646H534.729V392.834H537.333Z" fill="white"/>
<path d="M521.708 392.834L516.5 387.625L511.292 392.834H513.896V400.646H519.104V392.834H521.708Z" fill="white"/>
</g>
<path d="M198.781 366.125L216.406 419.656H217.156L234.875 366.125H248.281L224.281 434H209.281L185.375 366.125H198.781ZM308.45 400.062C308.45 422 295.138 434.938 277.325 434.938C259.513 434.938 246.2 421.906 246.2 400.062C246.2 378.125 259.513 365.188 277.325 365.188C295.138 365.188 308.45 378.125 308.45 400.062ZM296.169 400.062C296.169 384.594 288.388 376.156 277.325 376.156C266.263 376.156 258.481 384.594 258.481 400.062C258.481 415.531 266.263 423.969 277.325 423.969C288.388 423.969 296.169 415.531 296.169 400.062ZM360.275 389C358.869 380.844 352.306 376.156 344.056 376.156C332.9 376.156 325.119 384.688 325.119 400.062C325.119 415.625 332.994 423.969 344.056 423.969C352.119 423.969 358.681 419.469 360.275 411.5H372.556C370.681 424.531 359.994 434.938 343.869 434.938C325.963 434.938 312.838 421.906 312.838 400.062C312.838 378.125 326.15 365.188 343.869 365.188C358.869 365.188 370.494 373.906 372.556 389H360.275ZM386.038 434H373.006L396.913 366.125H411.913L435.913 434H422.881L417.256 417.219H391.663L386.038 434ZM394.944 407.375H413.975L404.694 380H404.131L394.944 407.375ZM439.175 434V366.125H465.144C479.863 366.125 487.175 373.625 487.175 383.75C487.175 392 481.925 396.594 475.269 398.188V398.844C482.488 399.219 489.8 405.219 489.8 415.531C489.8 426.125 482.206 434 466.644 434H439.175ZM464.769 423.781C473.675 423.781 477.425 419.938 477.425 414.594C477.425 408.5 472.644 403.812 465.05 403.812H451.363V423.781H464.769ZM463.644 395C470.113 395 474.988 391.25 474.988 385.25C474.988 380 471.238 376.25 463.925 376.25H451.363V395H463.644ZM555.5 400.062C555.5 422 542.188 434.938 524.375 434.938C506.562 434.938 493.25 421.906 493.25 400.062C493.25 378.125 506.562 365.188 524.375 365.188C542.188 365.188 555.5 378.125 555.5 400.062ZM543.219 400.062C543.219 384.594 535.438 376.156 524.375 376.156C513.312 376.156 505.531 384.594 505.531 400.062C505.531 415.531 513.312 423.969 524.375 423.969C535.438 423.969 543.219 415.531 543.219 400.062ZM569.356 366.125L584.263 391.062H584.825L599.919 366.125H613.794L592.888 400.062L614.169 434H600.013L584.825 409.25H584.263L569.075 434H555.013L576.481 400.062L555.294 366.125H569.356Z" fill="white"/>
<defs>
<clipPath id="clip0_1106_170">
<rect width="118.741" height="115.875" fill="white" transform="translate(454 303)"/>
</clipPath>
</defs>
</svg>
