<?xml version="1.0" standalone="no"?>
<!DOCTYPE svg PUBLIC "-//W3C//DTD SVG 20010904//EN"
 "http://www.w3.org/TR/2001/REC-SVG-20010904/DTD/svg10.dtd">
<svg version="1.0" xmlns="http://www.w3.org/2000/svg"
 width="1408.000000pt" height="1408.000000pt" viewBox="0 0 1408.000000 1408.000000"
 preserveAspectRatio="xMidYMid meet">
<metadata>
Created by potrace 1.14, written by Peter Selinger 2001-2017
</metadata>
<g transform="translate(0.000000,1408.000000) scale(0.100000,-0.100000)"
fill="#000000" stroke="none">
<path d="M7158 14076 c-3 -3 -46 -8 -173 -20 -22 -3 -53 -7 -70 -10 -16 -3
-46 -8 -65 -11 -19 -3 -55 -11 -80 -17 -25 -6 -54 -12 -66 -13 -12 -2 -60 -15
-107 -29 -46 -14 -90 -26 -95 -26 -6 0 -23 -5 -39 -12 -15 -6 -32 -12 -38 -14
-5 -1 -37 -12 -70 -25 -33 -13 -63 -22 -67 -21 -5 1 -8 -3 -8 -8 0 -6 -7 -10
-16 -10 -16 0 -290 -134 -359 -175 -22 -14 -47 -28 -55 -32 -8 -3 -29 -17 -46
-30 -18 -13 -57 -33 -89 -44 -31 -11 -64 -23 -73 -28 -9 -5 -28 -13 -42 -19
-42 -17 -292 -142 -335 -168 -22 -13 -47 -27 -55 -31 -21 -10 -192 -127 -216
-148 -7 -5 -24 -19 -40 -30 -130 -93 -415 -377 -509 -509 -11 -16 -24 -33 -30
-40 -21 -24 -138 -195 -148 -216 -4 -8 -18 -33 -32 -55 -43 -71 -175 -342
-175 -359 0 -9 -4 -16 -8 -16 -5 0 -9 -6 -9 -12 -1 -7 -15 -48 -31 -90 -17
-43 -28 -78 -26 -78 3 0 -2 -13 -11 -30 -8 -16 -15 -32 -15 -35 0 -3 0 -6 -1
-7 0 -2 -2 -10 -4 -18 -2 -8 -11 -42 -20 -75 -9 -33 -18 -69 -19 -80 -2 -11
-8 -38 -14 -60 -6 -22 -13 -58 -16 -80 -2 -22 -5 -40 -6 -40 -3 0 -16 -100
-27 -200 -10 -92 -10 -449 0 -550 11 -110 21 -184 34 -240 2 -11 6 -33 8 -50
3 -16 9 -48 15 -70 6 -22 13 -47 14 -55 9 -51 61 -217 98 -315 41 -109 38
-103 112 -255 67 -139 72 -148 144 -263 23 -37 42 -70 42 -73 0 -3 6 -11 13
-18 6 -8 19 -24 27 -36 78 -115 173 -229 310 -368 113 -115 291 -271 366 -318
16 -10 31 -21 34 -24 20 -21 202 -131 320 -193 41 -22 79 -43 84 -48 6 -5 16
-9 23 -9 6 0 43 -14 80 -31 90 -41 207 -87 238 -93 6 -1 33 -10 60 -19 28 -9
62 -18 77 -21 15 -3 33 -8 38 -11 6 -4 21 -9 33 -11 12 -2 76 -14 142 -28 66
-13 141 -27 168 -30 26 -3 66 -8 90 -11 23 -3 87 -8 142 -10 55 -2 102 -4 105
-5 22 -6 275 6 339 16 25 3 62 7 81 9 114 8 316 53 503 111 43 13 80 24 81 24
8 0 12 -60 5 -72 -4 -6 -4 -19 1 -28 5 -9 5 -22 0 -30 -5 -8 -5 -21 0 -30 5
-9 5 -22 0 -30 -5 -8 -5 -21 0 -30 5 -9 5 -22 0 -30 -5 -8 -5 -21 0 -30 5 -9
5 -22 0 -30 -5 -8 -5 -21 0 -30 5 -9 5 -22 0 -30 -5 -8 -5 -21 0 -30 5 -9 5
-22 0 -30 -5 -8 -5 -21 0 -30 5 -9 5 -22 0 -30 -5 -8 -5 -21 0 -30 5 -9 5 -22
0 -30 -5 -8 -5 -21 0 -30 5 -9 5 -22 0 -30 -5 -8 -5 -21 0 -30 5 -9 5 -22 0
-30 -5 -8 -5 -21 0 -30 5 -9 5 -22 0 -30 -5 -8 -5 -21 0 -30 5 -9 5 -22 0 -30
-5 -8 -5 -21 0 -30 5 -9 5 -22 0 -30 -5 -8 -5 -21 0 -30 5 -9 5 -22 0 -30 -5
-8 -5 -21 0 -30 5 -9 5 -22 0 -30 -5 -8 -5 -21 0 -30 5 -9 5 -22 0 -30 -5 -8
-5 -21 0 -30 5 -9 5 -22 0 -30 -5 -8 -5 -21 0 -30 5 -9 5 -22 0 -30 -5 -8 -5
-21 0 -30 5 -9 5 -22 0 -30 -5 -8 -5 -21 0 -30 5 -9 5 -22 0 -30 -5 -8 -5 -21
0 -30 5 -9 5 -22 0 -30 -5 -8 -5 -21 0 -30 5 -9 5 -22 0 -30 -5 -8 -5 -21 0
-30 5 -9 5 -22 0 -30 -5 -8 -5 -21 0 -30 5 -9 5 -22 0 -30 -5 -8 -5 -21 0 -30
5 -9 5 -22 0 -30 -5 -8 -5 -21 0 -30 5 -9 5 -22 0 -30 -5 -8 -5 -21 0 -30 5
-9 5 -22 0 -30 -5 -8 -5 -21 0 -30 5 -9 5 -22 0 -30 -5 -8 -5 -21 0 -30 5 -9
5 -22 0 -30 -4 -7 -4 -24 0 -36 6 -14 5 -26 0 -29 -6 -3 -6 -15 0 -30 6 -15 6
-27 0 -30 -6 -3 -6 -15 0 -30 6 -15 6 -27 0 -30 -6 -3 -6 -15 0 -29 5 -13 6
-27 3 -30 -8 -8 -9 -76 -1 -76 4 0 3 -13 -2 -30 -5 -17 -5 -30 0 -30 5 0 5
-13 0 -30 -5 -17 -5 -30 0 -30 5 0 5 -13 0 -30 -5 -17 -5 -30 0 -30 5 0 5 -13
0 -30 -5 -17 -5 -30 0 -30 5 0 5 -13 0 -30 -5 -17 -5 -30 0 -30 5 0 5 -13 0
-30 -5 -17 -5 -30 0 -30 5 0 5 -13 0 -30 -5 -17 -5 -30 0 -30 5 0 5 -13 0 -30
-5 -17 -5 -30 0 -30 5 0 5 -13 0 -30 -5 -17 -5 -30 0 -30 5 0 5 -13 0 -30 -5
-17 -5 -30 0 -30 5 0 5 -13 0 -30 -5 -17 -5 -30 0 -30 5 0 5 -13 0 -30 -5 -17
-5 -30 0 -30 5 0 5 -13 0 -30 -5 -17 -5 -30 0 -30 5 0 5 -13 0 -30 -5 -17 -5
-30 0 -30 5 0 5 -13 0 -30 -5 -17 -5 -30 0 -30 5 0 5 -13 0 -30 -5 -17 -5 -30
0 -30 5 0 5 -13 0 -30 -5 -17 -5 -30 0 -30 5 0 5 -13 0 -30 -5 -17 -5 -30 0
-30 5 0 5 -13 0 -30 -5 -17 -5 -30 0 -30 5 0 5 -13 0 -30 -5 -17 -5 -30 0 -30
5 0 5 -13 0 -30 -5 -17 -5 -30 0 -30 5 0 5 -13 0 -30 -5 -17 -5 -30 0 -30 5 0
5 -13 0 -30 -5 -17 -5 -30 0 -30 5 0 5 -13 0 -30 -5 -17 -5 -30 0 -30 5 0 5
-13 0 -30 -5 -17 -5 -30 0 -30 5 0 5 -13 0 -30 -5 -17 -5 -30 0 -30 5 0 5 -13
0 -30 -5 -17 -5 -30 0 -30 5 0 5 -13 0 -30 -5 -17 -5 -30 0 -30 5 0 5 -13 0
-30 -5 -19 -5 -30 1 -30 6 0 7 -5 4 -11 -9 -14 -9 -214 0 -228 3 -6 2 -11 -4
-11 -6 0 -6 -11 -1 -30 5 -17 5 -32 0 -35 -5 -3 -5 -16 0 -30 6 -15 6 -27 0
-30 -5 -3 -6 -16 -1 -28 4 -12 5 -33 1 -47 -4 -14 -3 -35 1 -47 5 -12 4 -25
-1 -28 -6 -3 -6 -15 0 -29 5 -13 6 -27 3 -30 -8 -8 -9 -76 -1 -76 4 0 3 -13
-2 -30 -5 -17 -5 -30 0 -30 5 0 5 -13 0 -30 -5 -17 -5 -30 0 -30 5 0 5 -13 0
-30 -5 -17 -5 -30 0 -30 5 0 5 -13 0 -30 -5 -17 -5 -30 0 -30 5 0 5 -13 0 -30
-5 -17 -5 -30 0 -30 5 0 5 -13 0 -30 -5 -17 -5 -30 0 -30 5 0 5 -13 0 -30 -5
-17 -5 -30 0 -30 5 0 5 -13 0 -30 -5 -17 -5 -30 0 -30 5 0 5 -13 0 -30 -5 -17
-5 -30 0 -30 5 0 5 -13 0 -30 -5 -17 -5 -30 0 -30 5 0 5 -13 0 -30 -5 -17 -5
-30 0 -30 5 0 5 -13 0 -30 -5 -17 -5 -30 0 -30 5 0 5 -13 0 -30 -5 -17 -5 -30
0 -30 5 0 5 -13 0 -30 -5 -17 -5 -30 0 -30 5 0 5 -13 0 -30 -5 -17 -5 -30 0
-30 5 0 5 -13 0 -30 -5 -17 -5 -30 0 -30 5 0 5 -13 0 -30 -5 -17 -5 -30 0 -30
5 0 5 -13 0 -30 -5 -17 -5 -30 0 -30 5 0 5 -13 0 -30 -5 -17 -5 -30 0 -30 5 0
5 -13 0 -30 -5 -17 -5 -30 0 -30 5 0 5 -13 0 -30 -5 -17 -5 -30 0 -30 5 0 5
-13 0 -30 -5 -17 -5 -30 0 -30 5 0 5 -13 0 -30 -5 -17 -5 -30 0 -30 5 0 5 -13
0 -30 -5 -17 -5 -30 0 -30 5 0 5 -13 0 -30 -5 -17 -5 -30 0 -30 5 0 5 -13 0
-30 -5 -17 -5 -30 0 -30 5 0 5 -13 0 -30 -5 -17 -5 -30 0 -30 5 0 5 -13 0 -30
-5 -17 -5 -30 0 -30 5 0 5 -13 0 -30 -5 -17 -5 -30 0 -30 5 0 5 -13 0 -30 -5
-17 -5 -30 0 -30 5 0 5 -13 0 -30 -5 -17 -5 -30 0 -30 5 0 5 -13 0 -30 -5 -17
-5 -30 0 -30 5 0 5 -13 0 -30 -5 -16 -6 -30 -2 -30 8 0 7 -68 -1 -76 -3 -3 -2
-17 3 -30 6 -14 6 -26 0 -29 -5 -3 -6 -15 0 -29 4 -12 4 -29 0 -36 -5 -8 -5
-21 0 -30 5 -9 5 -22 0 -30 -5 -8 -5 -21 0 -30 5 -9 5 -22 0 -30 -5 -8 -5 -21
0 -30 5 -9 5 -22 0 -30 -5 -8 -5 -21 0 -30 5 -9 5 -22 0 -30 -5 -8 -5 -21 0
-30 5 -9 5 -22 0 -30 -5 -8 -5 -21 0 -30 5 -9 5 -22 0 -30 -5 -8 -5 -21 0 -30
5 -9 5 -22 0 -30 -5 -8 -5 -21 0 -30 5 -9 5 -22 0 -30 -5 -8 -5 -21 0 -30 5
-9 5 -22 0 -30 -5 -8 -5 -21 0 -30 5 -9 5 -22 0 -30 -5 -8 -5 -21 0 -30 5 -9
5 -22 0 -30 -5 -8 -5 -21 0 -30 5 -9 5 -22 0 -30 -5 -8 -5 -21 0 -30 5 -9 5
-22 0 -30 -5 -8 -5 -21 0 -30 5 -9 5 -22 0 -30 -5 -8 -5 -21 0 -30 5 -9 5 -22
0 -30 -5 -8 -5 -21 0 -30 5 -9 5 -22 0 -30 -5 -8 -5 -21 0 -30 5 -9 5 -22 0
-30 -5 -8 -5 -21 0 -30 5 -9 5 -22 0 -30 -5 -8 -5 -21 0 -30 5 -9 5 -22 0 -30
-5 -8 -5 -21 0 -30 5 -9 5 -22 0 -30 -5 -8 -5 -21 0 -30 5 -9 5 -22 0 -30 -5
-8 -5 -21 0 -30 5 -9 5 -22 0 -30 -5 -8 -6 -18 -4 -22 10 -16 13 -48 4 -48 -4
0 -5 -12 -1 -27 8 -28 8 -28 97 -27 249 1 518 53 784 150 121 44 119 44 126
43 4 0 10 3 13 8 8 11 79 43 96 43 7 0 15 4 17 9 2 4 26 19 53 33 67 33 139
72 145 78 3 3 39 27 80 54 69 45 179 125 206 151 6 5 35 30 65 55 97 82 235
227 328 344 61 77 154 210 177 251 22 41 39 70 44 75 3 3 27 50 54 105 26 55
57 117 68 138 10 20 17 37 13 37 -3 0 2 11 11 25 9 14 13 25 9 25 -4 0 -3 6 3
13 13 15 77 214 98 302 1 6 4 21 7 35 3 14 10 48 17 75 6 28 13 64 15 80 5 53
17 129 24 150 10 34 12 8595 2 8595 -5 0 -6 25 -3 58 14 127 6 559 -13 647 -3
11 -7 37 -10 57 -2 21 -9 57 -14 80 -5 24 -9 50 -9 58 -1 8 -6 33 -12 55 -6
22 -13 49 -15 60 -2 11 -4 20 -5 20 -1 0 -10 32 -21 70 -10 39 -21 77 -23 85
-3 8 -5 15 -6 15 -1 0 -3 7 -5 15 -3 17 -42 124 -55 155 -5 11 -23 54 -41 95
-54 128 -214 422 -254 466 -5 6 -17 22 -25 34 -113 170 -385 465 -531 575 -15
11 -63 48 -107 83 -44 34 -85 62 -91 62 -5 0 -11 3 -13 8 -3 7 -101 72 -178
116 -45 27 -294 149 -340 168 -70 29 -169 65 -215 78 -22 6 -47 14 -55 17 -8
3 -19 7 -25 8 -5 2 -30 8 -55 15 -25 7 -52 14 -60 16 -8 2 -35 8 -60 15 -25 6
-56 13 -70 15 -62 10 -87 14 -109 19 -14 2 -47 7 -75 11 -28 3 -67 8 -86 10
-40 6 -486 14 -492 10z"/>
</g>
</svg>
