<?xml version="1.0" encoding="utf-8"?>
<!-- Generator: Adobe Illustrator 27.1.0, SVG Export Plug-In . SVG Version: 6.00 Build 0)  -->
<svg version="1.1" id="Layer_1" xmlns="http://www.w3.org/2000/svg" xmlns:xlink="http://www.w3.org/1999/xlink" x="0px" y="0px"
	 viewBox="0 0 170 40" style="enable-background:new 0 0 170 40;" xml:space="preserve">
<style type="text/css">
	.st0{fill:#414B4F;}
	.st1{fill:#F7931E;}
	.st2{fill:#FFFFFF;}
	.st3{fill:none;stroke:#FFFFFF;stroke-width:0.7586;stroke-linecap:round;stroke-miterlimit:10;}
</style>
<g>
	<path class="st0" d="M100.6,7.7c2.4,0,4.2,0.6,5.5,1.8c1.3,1.2,2,2.8,2,4.8v0.6c0,1.5-0.3,2.7-1,3.7c-0.7,1-1.6,1.7-2.8,2.2l4,7.1
		c0.3,0.5,0.4,1,0.2,1.5c-0.2,0.5-0.5,0.8-1,1.1c-0.5,0.2-1,0.3-1.5,0.3c-0.5-0.1-0.9-0.4-1.2-0.9l-4.4-8.4c-0.1,0-0.2,0-0.4,0
		s-0.2,0-0.4,0H96v7.5c0,0.6-0.2,1.1-0.6,1.3c-0.4,0.3-0.9,0.4-1.4,0.4s-1-0.1-1.4-0.4c-0.4-0.3-0.6-0.7-0.6-1.3V10.4
		c0-1,0.2-1.7,0.6-2.1c0.4-0.4,1.1-0.6,2.1-0.6H100.6z M96,18h3.7c1.6,0,2.7-0.3,3.3-0.8s1-1.3,1-2.4v-0.4c0-1.1-0.3-1.9-0.9-2.4
		s-1.6-0.8-3-0.8H96V18z"/>
	<path class="st0" d="M114.6,7.6c0.6,0,1,0.1,1.4,0.4s0.6,0.7,0.6,1.3v11.7c0,1.1,0.1,2.1,0.3,2.9c0.2,0.8,0.5,1.4,0.9,1.9
		c0.4,0.5,0.9,0.8,1.5,1c0.6,0.2,1.3,0.3,2.2,0.3c0.8,0,1.6-0.1,2.2-0.3c0.6-0.2,1.1-0.5,1.5-1c0.4-0.5,0.7-1.1,0.9-1.9
		c0.2-0.8,0.3-1.7,0.3-2.9V9.3c0-0.6,0.2-1.1,0.6-1.3s0.9-0.4,1.4-0.4s1,0.1,1.4,0.4s0.6,0.7,0.6,1.3V21c0,1.9-0.2,3.5-0.6,4.7
		s-1,2.3-1.7,3c-0.8,0.8-1.7,1.3-2.8,1.6c-1.1,0.3-2.4,0.5-3.8,0.5c-1.5,0-2.7-0.2-3.8-0.5s-2-0.9-2.8-1.6c-0.8-0.8-1.3-1.8-1.7-3
		c-0.4-1.3-0.6-2.8-0.6-4.7V9.3c0-0.6,0.2-1.1,0.6-1.3S114.1,7.6,114.6,7.6z"/>
	<path class="st0" d="M138.6,7.7c0.5,0,0.9,0,1.2,0.1c0.3,0.1,0.6,0.2,0.9,0.4c0.3,0.2,0.5,0.5,0.8,1c0.2,0.4,0.5,1,0.8,1.7
		l4.4,10.9l4.2-10.9c0.3-0.7,0.5-1.3,0.8-1.7c0.2-0.4,0.5-0.8,0.8-1c0.3-0.2,0.6-0.4,1-0.5c0.4-0.1,0.8-0.1,1.2-0.1h0.7
		c1,0,1.7,0.2,2.1,0.6c0.4,0.4,0.6,1.1,0.6,2.1V29c0,0.6-0.2,1-0.6,1.3c-0.4,0.3-0.8,0.4-1.4,0.4c-0.5,0-0.9-0.1-1.3-0.4
		c-0.4-0.3-0.6-0.7-0.6-1.3V11.3c-0.2,0.8-0.4,1.5-0.5,2c-0.2,0.5-0.3,1-0.5,1.5l-4.2,10.4c-0.3,0.7-0.6,1.1-0.9,1.4
		c-0.3,0.2-0.7,0.3-1.3,0.3c-0.7,0-1.2-0.1-1.5-0.4c-0.3-0.2-0.6-0.7-0.9-1.4l-4.1-10.3c-0.2-0.4-0.3-0.9-0.5-1.4
		c-0.2-0.5-0.4-1.2-0.6-2V29c0,0.6-0.2,1-0.6,1.3c-0.4,0.3-0.8,0.4-1.4,0.4c-0.5,0-0.9-0.1-1.3-0.4c-0.4-0.3-0.6-0.7-0.6-1.3V10.3
		c0-1,0.2-1.7,0.6-2.1c0.4-0.4,1.1-0.6,2.1-0.6H138.6z"/>
	<path class="st0" d="M165.3,7.6c0.6,0,1,0.1,1.4,0.4c0.4,0.3,0.6,0.7,0.6,1.3v19.6c0,0.6-0.2,1.1-0.6,1.3c-0.4,0.3-0.9,0.4-1.4,0.4
		s-1-0.1-1.4-0.4c-0.4-0.3-0.6-0.7-0.6-1.3V9.3c0-0.6,0.2-1.1,0.6-1.3C164.3,7.7,164.7,7.6,165.3,7.6z"/>
</g>
<g>
	<path class="st0" d="M57,9.3c1.5-0.3,2.8-0.3,3.9-0.2C62,9.3,63,9.5,63.8,9.9c0.5,0.3,0.9,0.6,1,1.1c0.1,0.5,0.1,0.9-0.1,1.4
		c-0.2,0.5-0.5,0.8-1,1s-0.8,0.2-1.3,0c-0.7-0.3-1.4-0.5-2.2-0.5c-0.8-0.1-1.7,0-2.6,0.1c-1.1,0.2-1.9,0.5-2.7,0.8
		c-0.7,0.4-1.3,0.9-1.7,1.6c-0.4,0.7-0.6,1.5-0.7,2.5c-0.1,1,0,2.2,0.3,3.7l0.1,0.7c0.2,1.5,0.6,2.6,1,3.6c0.4,0.9,0.9,1.6,1.5,2.1
		c0.6,0.5,1.3,0.8,2.1,0.9c0.8,0.1,1.8,0.1,2.9-0.1c0.8-0.1,1.4-0.3,2-0.5c0.6-0.2,1.1-0.5,1.7-0.8l-0.9-5.3l-3.5,0.6
		c-0.5,0.1-0.9,0-1.2-0.3c-0.3-0.3-0.5-0.7-0.6-1.1c-0.1-0.4,0-0.9,0.1-1.2c0.2-0.4,0.5-0.6,1-0.7l4.9-0.8c1-0.2,1.7-0.1,2.2,0.2
		c0.5,0.3,0.8,1,0.9,1.9l1.1,6.2c0.1,0.8,0.1,1.4-0.1,1.9c-0.2,0.5-0.6,0.9-1.2,1.3c-0.8,0.5-1.7,0.9-2.7,1.3
		c-1,0.4-2.1,0.7-3.2,0.9c-1.6,0.3-3.1,0.3-4.5,0.2C55.2,32.4,54,32,53,31.3c-1-0.7-1.9-1.7-2.5-3c-0.7-1.3-1.2-3-1.5-5L48.7,22
		c-0.3-2-0.4-3.7-0.2-5.2c0.2-1.5,0.7-2.7,1.4-3.7c0.7-1,1.7-1.8,2.8-2.4C53.9,10,55.3,9.6,57,9.3z"/>
	<path class="st0" d="M71,7.1c0.5-0.1,1,0,1.5,0.2c0.4,0.2,0.7,0.6,0.8,1.2l2,11.6c0.2,1.1,0.4,2,0.8,2.8c0.3,0.7,0.7,1.3,1.2,1.7
		c0.5,0.4,1,0.7,1.7,0.8c0.6,0.1,1.4,0.1,2.2-0.1c0.8-0.1,1.5-0.4,2.1-0.7c0.6-0.3,1-0.7,1.3-1.3c0.3-0.5,0.5-1.2,0.5-2
		c0.1-0.8,0-1.8-0.2-2.9l-2-11.6c-0.1-0.6,0-1.1,0.4-1.4c0.4-0.3,0.8-0.6,1.3-0.7s1,0,1.5,0.2c0.4,0.2,0.7,0.6,0.8,1.2l2,11.5
		c0.3,1.9,0.4,3.5,0.2,4.8c-0.2,1.3-0.6,2.4-1.2,3.3c-0.6,0.9-1.4,1.6-2.5,2.1c-1,0.5-2.3,0.9-3.7,1.1c-1.4,0.2-2.7,0.3-3.9,0.2
		c-1.1-0.1-2.2-0.5-3-1.1c-0.9-0.6-1.6-1.5-2.2-2.7s-1.1-2.7-1.4-4.6l-2-11.5c-0.1-0.6,0-1.1,0.4-1.4S70.4,7.2,71,7.1z"/>
</g>
<g>
	<ellipse class="st0" cx="23.1" cy="23.8" rx="16.6" ry="15.2"/>
	<path class="st0" d="M17.9,28.1c0,0,13.3,8.5,20.4,2.8s6.2-12.3,6.2-12.3s-4.3,6.6-6.2,6.2c-1.9-0.5-7.6-4.3-5.2-7.6
		C35.5,13.8,17.9,28.1,17.9,28.1z"/>
	<path class="st1" d="M35.5,35.7"/>
	<path class="st0" d="M7.5,22.4c0,0-12.8-11.9-2.8-11.9S17,11,17,11L7.5,22.4z"/>
	<path class="st0" d="M21.3,10.5c0,0,10.4-14,11.5-4.1c1.1,9.9,0.9,12.3,0.9,12.3L21.3,10.5z"/>
	<path class="st2" d="M8.2,19.4c0,0-6.4-5.9-1.4-5.9s6.2,0.2,6.2,0.2L8.2,19.4z"/>
	<path id="귀때기_10_" class="st2" d="M25.3,9.4c0,0,4.7-7.3,5.6-2.4s0.9,6.1,0.9,6.1L25.3,9.4z"/>
	<ellipse transform="matrix(0.9623 -0.2721 0.2721 0.9623 -6.6834 4.642)" class="st2" cx="13.4" cy="26.4" rx="1.7" ry="2.1"/>
	<ellipse transform="matrix(0.9623 -0.2721 0.2721 0.9623 -5.3821 6.4351)" class="st2" cx="20.5" cy="22.6" rx="1.7" ry="2.1"/>
	<path class="st3" d="M17.9,27c-0.5,3.4,1.4,6,3.3,6.2c1.8,0.2,3.2-1.7,3.3-1.9"/>
</g>
</svg>
