<svg width="46" height="55" viewBox="0 0 46 55" fill="none" xmlns="http://www.w3.org/2000/svg">
<path d="M9.648 28.8C6.91733 28.8 4.72 27.9467 3.056 26.24C1.392 24.5333 0.56 22.4427 0.56 19.968C0.56 17.3227 1.392 15.1893 3.056 13.568C4.72 11.9467 6.91733 11.136 9.648 11.136C11.44 11.136 13.0187 11.5413 14.384 12.352C15.7493 13.12 16.7947 14.1653 17.52 15.488C18.288 16.8107 18.672 18.304 18.672 19.968C18.672 21.632 18.288 23.1253 17.52 24.448C16.752 25.7707 15.6853 26.8373 14.32 27.648C12.9547 28.416 11.3973 28.8 9.648 28.8ZM9.648 24.96C11.3547 24.96 12.656 24.4907 13.552 23.552C14.448 22.6133 14.896 21.4187 14.896 19.968C14.896 18.3893 14.4267 17.1733 13.488 16.32C12.5493 15.424 11.2693 14.976 9.648 14.976C7.94133 14.976 6.64 15.4453 5.744 16.384C4.848 17.28 4.4 18.4747 4.4 19.968C4.4 21.504 4.86933 22.72 5.808 23.616C6.74667 24.512 8.02667 24.96 9.648 24.96ZM9.648 52.352C8.96533 52.352 8.47467 52.16 8.176 51.776C7.87733 51.4347 7.70667 51.0293 7.664 50.56C7.536 47.4027 7.472 44.16 7.472 40.832C7.472 38.016 7.536 35.392 7.664 32.96C7.70667 32.2773 7.94133 31.808 8.368 31.552C8.83733 31.2533 9.28533 31.1467 9.712 31.232C10.224 31.232 10.6507 31.424 10.992 31.808C11.3333 32.192 11.504 32.6827 11.504 33.28C11.4187 33.7067 11.3547 34.624 11.312 36.032C11.2693 37.44 11.248 38.9973 11.248 40.704C11.248 42.0693 11.248 43.4347 11.248 44.8C11.2907 46.1227 11.3333 47.2747 11.376 48.256C11.4187 49.2373 11.4613 49.8987 11.504 50.24C11.504 50.9653 11.312 51.4987 10.928 51.84C10.544 52.1813 10.1173 52.352 9.648 52.352ZM36.994 34.88C36.5247 34.88 36.0767 34.7093 35.65 34.368C35.266 34.0267 35.074 33.5573 35.074 32.96V2.752C35.074 2.112 35.2873 1.64266 35.714 1.344C36.1407 1.00266 36.5673 0.831997 36.994 0.831997C37.5487 0.831997 37.9967 1.00266 38.338 1.344C38.722 1.68533 38.914 2.15467 38.914 2.752V32.96C38.914 33.6427 38.7007 34.1333 38.274 34.432C37.89 34.7307 37.4633 34.88 36.994 34.88ZM36.994 54.4C34.6473 54.4 32.706 53.6747 31.17 52.224C29.634 50.7733 28.866 48.8747 28.866 46.528C28.866 44.1387 29.634 42.2187 31.17 40.768C32.706 39.3173 34.6473 38.592 36.994 38.592C39.3407 38.592 41.282 39.3387 42.818 40.832C44.3967 42.2827 45.186 44.1813 45.186 46.528C45.186 48.7467 44.418 50.6027 42.882 52.096C41.346 53.632 39.3833 54.4 36.994 54.4ZM36.994 50.752C38.4447 50.752 39.554 50.3467 40.322 49.536C41.1327 48.7253 41.538 47.7227 41.538 46.528C41.538 45.2053 41.1327 44.16 40.322 43.392C39.5113 42.624 38.402 42.24 36.994 42.24C35.5007 42.24 34.37 42.6453 33.602 43.456C32.8767 44.224 32.514 45.248 32.514 46.528C32.514 47.808 32.898 48.832 33.666 49.6C34.434 50.368 35.5433 50.752 36.994 50.752Z" fill="#241758"/>
</svg>
