<svg width="316" height="254" viewBox="0 0 316 254" fill="none" xmlns="http://www.w3.org/2000/svg">
<path d="M138.162 235.431C140.957 235.774 144.945 235.586 150.127 234.867C155.373 234.156 161.511 233.007 168.54 231.418C179.759 228.796 189.135 226.206 196.671 223.648C204.277 221.034 210.284 218.321 214.691 215.508C214.658 214.731 214.453 213.771 214.077 212.628C213.709 211.423 213.274 210.241 212.771 209.083C212.332 207.933 211.845 206.906 211.311 206.002C210.785 205.035 210.347 204.401 209.997 204.1C203.545 208.339 196.723 211.919 189.529 214.841C182.336 217.764 174.198 220.248 165.113 222.293C157.29 224.042 150.275 225.246 144.069 225.903C137.927 226.569 132.854 226.656 128.852 226.165C127.772 226.033 127.105 225.951 126.851 225.92C126.597 225.889 126.347 225.826 126.101 225.731C126.119 226.636 126.248 227.426 126.487 228.1C126.727 228.774 127.058 229.234 127.479 229.479C127.781 229.645 128.215 230.053 128.78 230.702C129.281 231.344 129.664 231.907 129.927 232.39C130.238 233.009 131.164 233.606 132.705 234.182C134.31 234.765 136.129 235.182 138.162 235.431Z" fill="#E4EDC1"/>
<path d="M23.8996 105.14C23.165 100.721 22.9513 96.3119 23.2583 91.9141C23.618 87.4426 24.43 83.1554 25.6944 79.0526C26.9483 74.8866 28.6071 71.0101 30.6709 67.4232C32.7873 63.7626 35.1981 60.5072 37.9034 57.6571C40.6718 54.7964 43.7188 52.4409 47.0445 50.5906C50.3596 48.6771 53.8796 47.4108 57.6045 46.7917C61.9607 46.0676 65.4905 46.4216 68.1939 47.8537C70.9605 49.2753 72.6166 51.6276 73.1623 54.9105C73.3722 56.1732 73.3979 57.4989 73.2395 58.8877C73.1442 60.266 72.8595 61.6758 72.3854 63.117C71.9639 64.4846 71.4109 65.8417 70.7265 67.1881C70.042 68.5346 69.2366 69.7389 68.3102 70.8012C66.6267 70.8215 65.0856 70.3316 63.6866 69.3314C62.2772 68.2681 61.2782 66.942 60.6897 65.353C62.5951 63.1548 64.0164 60.9722 64.9538 58.8052C65.9438 56.5645 66.3024 54.6235 66.0295 52.982C65.5678 50.2041 63.6007 49.1037 60.1284 49.6809C58.6763 49.9223 57.2136 50.4898 55.7402 51.3835C54.3194 52.2036 52.909 53.2814 51.5091 54.617C50.1091 55.9526 48.7775 57.504 47.5141 59.2711C46.3139 61.0276 45.2346 62.9263 44.2763 64.9671C37.5995 79.0525 35.3577 92.6927 37.551 105.888C38.3275 110.56 39.678 114.195 41.6023 116.795C43.5266 119.395 45.7303 120.748 48.2133 120.854C50.8231 119.771 53.9753 117.463 57.6699 113.93C61.3645 110.396 65.2962 105.947 69.4651 100.583C70.2014 101.109 70.6904 101.709 70.9321 102.383C69.5 105.086 67.989 107.705 66.3991 110.24C64.8093 112.775 63.1879 115.121 61.5351 117.277C59.9454 119.423 58.319 121.348 56.6559 123.051C55.0559 124.745 53.5296 126.101 52.0772 127.121C44.2276 128.296 37.9205 127.041 33.1559 123.357C28.3912 119.672 25.3058 113.6 23.8996 105.14ZM85.4578 117.388C81.7962 117.607 78.6613 116.507 76.053 114.085C73.4447 111.664 71.7838 108.307 71.0702 104.014C70.6504 101.489 70.5937 98.8058 70.9001 95.9651C71.2065 93.1244 71.8442 90.326 72.8134 87.5698C73.7721 84.7504 75.0096 82.0469 76.5258 79.4593C78.042 76.8717 79.7686 74.5734 81.7054 72.5647C84.7475 69.399 87.7838 67.5643 90.8142 67.0606C93.0129 67.7981 95.3741 69.7088 97.8979 72.7927C98.2136 72.7402 98.4977 72.693 98.7502 72.651C98.9923 72.5459 99.2711 72.4671 99.5868 72.4146C102.933 71.8585 105.099 74.5477 106.086 80.4822C106.747 84.4597 106.713 88.3579 105.986 92.1769C105.311 95.9223 104.047 99.4412 102.193 102.734C100.403 106.016 98.0663 108.934 95.1823 111.49C92.3509 113.972 89.1094 115.938 85.4578 117.388ZM85.3291 86.7546C84.4972 88.385 83.7494 90.1313 83.0858 91.9933C82.4221 93.8553 81.8899 95.7279 81.4893 97.6111C81.0782 99.4311 80.8196 101.193 80.7137 102.898C80.5972 104.539 80.6439 105.991 80.8538 107.254C81.1057 108.769 81.5996 110.179 82.3355 111.484C83.0714 112.789 83.7708 113.484 84.4336 113.568C87.1697 112.465 89.5641 110.866 91.6167 108.774C93.7219 106.607 95.4117 104.088 96.6861 101.216C98.0236 98.3338 98.893 95.1724 99.2943 91.7321C99.7588 88.2812 99.6814 84.6933 99.0623 80.9684C98.7894 79.327 98.4796 78.0485 98.1328 77.1329C97.786 76.2174 97.3339 75.4491 96.7765 74.8281C94.135 76.1106 91.8616 77.8509 89.9563 80.0491C88.1141 82.2368 86.5717 84.4719 85.3291 86.7546ZM159.756 71.7558C158.756 71.9869 157.636 72.8544 156.393 74.3584C155.141 75.7993 153.825 77.64 152.445 79.8805C151.119 82.0474 149.734 84.451 148.292 87.0912C146.912 89.721 145.564 92.3455 144.248 94.9648C142.984 97.5105 141.794 99.9141 140.678 102.176C139.562 104.437 138.598 106.252 137.787 107.619C136.304 107.282 134.968 106.661 133.779 105.755C132.58 104.787 131.623 103.519 130.909 101.951C130.899 99.941 131.005 97.8472 131.227 95.6694C131.439 93.4284 131.797 91.098 132.303 88.6783C132.873 86.248 133.615 83.6916 134.532 81.009C135.501 78.2528 136.733 75.3231 138.229 72.2199C137.292 72.4405 136.114 73.3501 134.692 74.9487C133.261 76.4842 131.771 78.4511 130.223 80.8493C128.665 83.1844 127.091 85.8141 125.501 88.7384C123.901 91.5996 122.421 94.4082 121.063 97.1643C119.272 100.835 117.793 104.033 116.624 106.758C115.518 109.472 114.654 111.108 114.033 111.665C112.192 110.738 110.841 109.633 109.979 108.349C109.116 107.065 108.386 105.597 107.787 103.945C107.598 102.419 107.504 100.488 107.505 98.1526C107.569 95.8064 107.781 93.3707 108.14 90.8457C108.826 85.9956 109.927 81.1088 111.445 76.1854C113.025 71.2515 114.574 66.7121 116.091 62.5673C117.921 62.6522 119.599 62.9897 121.125 63.5795C122.713 64.1589 124.428 65.1066 126.268 66.4226C125.962 68.4847 125.33 70.7308 124.372 73.1608C123.403 75.5277 122.391 78.0314 121.338 80.6719C120.285 83.3123 119.368 85.9949 118.588 88.7196C117.809 91.4444 117.445 94.1325 117.496 96.7839C118.844 93.9647 120.445 90.7143 122.298 87.0326C124.215 83.3403 126.194 79.8323 128.237 76.5083C130.343 73.1739 132.49 70.2867 134.68 67.8467C136.869 65.4066 138.974 64.0187 140.995 63.6829C141.752 63.557 142.594 63.5468 143.52 63.6524C144.446 63.758 145.319 63.9373 146.139 64.1902C146.96 64.443 147.654 64.7169 148.222 65.0118C148.78 65.2435 149.106 65.4488 149.2 65.6277C149.095 66.9428 148.626 68.8049 147.793 71.214C147.014 73.5495 146.16 76.0269 145.233 78.6464C144.306 81.2658 143.464 83.8064 142.705 86.2681C141.936 88.6667 141.567 90.5446 141.598 91.9019C143.988 87.1577 146.257 82.8554 148.406 78.995C150.543 75.0714 152.607 71.6791 154.597 68.8181C156.586 65.9571 158.481 63.6958 160.281 62.0342C162.144 60.362 163.991 59.3738 165.822 59.0695C167.085 58.8596 168.31 59.0127 169.499 59.5288C170.741 59.9712 171.687 60.7871 172.339 61.9763C172.086 63.9647 171.516 66.395 170.631 69.267C169.809 72.1285 168.982 75.153 168.149 78.3407C167.306 81.4652 166.584 84.5372 165.983 87.5566C165.445 90.5656 165.365 93.2064 165.743 95.4792C165.963 96.805 166.3 97.6574 166.752 98.0364C167.194 98.3523 167.762 98.4525 168.456 98.337C169.214 98.2111 169.887 97.9694 170.477 97.6119C171.119 97.1808 171.598 96.939 171.913 96.8866C172.334 97.0761 172.608 97.3551 172.734 97.7234C172.86 98.0917 172.949 98.4337 173.002 98.7493C171.907 99.9694 170.749 101.005 169.528 101.857C168.318 102.772 166.892 103.366 165.25 103.638C163.735 103.89 162.43 103.848 161.336 103.511C160.305 103.163 159.401 102.6 158.622 101.821C157.844 101.042 157.234 100.105 156.793 99.0106C156.352 97.9161 156.021 96.706 155.8 95.3802C155.443 93.2337 155.376 91.0715 155.598 88.8936C155.809 86.6526 156.136 84.5221 156.579 82.5022C157.075 80.4086 157.628 78.4676 158.239 76.6792C158.839 74.8277 159.345 73.1866 159.756 71.7558ZM175.622 92.4747C175.528 91.9065 175.444 91.2067 175.371 90.3755C175.35 89.4707 175.351 88.3028 175.372 86.8718C175.383 85.3778 175.411 83.5891 175.454 81.5059C175.56 79.4122 175.692 76.8923 175.851 73.9463C175.873 73.294 175.989 72.2367 176.2 70.7743C176.411 69.3119 176.738 67.7653 177.181 66.1347C177.676 64.4304 178.308 62.7683 179.077 61.1483C179.908 59.5178 180.993 58.2347 182.329 57.2988C183.445 57.373 184.975 57.7998 186.922 58.5792C188.857 59.2955 190.608 60.4642 192.175 62.0852C190.996 63.968 190.038 65.8141 189.301 67.6235C188.627 69.4224 188.026 71.2739 187.499 73.1781C187.035 75.0718 186.614 77.0233 186.234 79.0328C185.917 81.0317 185.522 83.1411 185.048 85.361C184.647 87.2441 184.32 89.18 184.066 91.1684C183.803 93.0937 183.755 94.7561 183.922 96.1556C184.111 97.292 184.211 98.0864 184.221 98.5388C184.305 99.0439 184.189 99.3227 183.874 99.3751C183.621 99.4171 183.09 99.3432 182.28 99.1535C181.47 98.9637 180.602 98.6214 179.676 98.1265C178.803 97.558 177.967 96.8211 177.168 95.9159C176.368 95.0107 175.853 93.8636 175.622 92.4747ZM186.879 48.368C186.816 47.9892 186.816 47.4053 186.879 46.6162C186.511 46.353 186.148 45.9267 185.791 45.3374C185.497 44.7375 185.307 44.185 185.224 43.68C185.129 43.1118 185.066 42.3437 185.035 41.3757C185.057 40.3341 185.099 39.224 185.163 38.0457C185.226 36.8673 185.348 35.6468 185.527 34.3843C185.696 33.0587 185.886 31.8593 186.097 30.7862C186.855 30.6603 187.807 30.7291 188.954 30.9926C190.153 31.1825 191.379 31.5303 192.63 32.0359C193.872 32.4783 195.034 33.0312 196.118 33.6945C197.191 34.2947 198.037 34.9001 198.658 35.5106C198.079 36.3205 197.326 37.4512 196.399 38.9028C195.462 40.2912 194.573 41.7691 193.73 43.3365C192.877 44.8407 192.109 46.266 191.424 47.6125C190.74 48.9589 190.313 49.9057 190.145 50.4527C189.366 50.4524 188.651 50.2469 187.999 49.8363C187.336 49.3625 186.963 48.8731 186.879 48.368ZM200.988 47.5799C202.713 47.8121 204.449 48.6914 206.195 50.2178C207.93 51.6811 209.318 53.3967 210.359 55.3647C209.948 57.1847 209.216 59.4149 208.162 62.0554C207.109 64.6958 206.066 67.3994 205.034 70.1661C203.991 72.8697 203.059 75.4576 202.237 77.9298C201.468 80.3284 201.109 82.2695 201.161 83.753C201.993 82.5118 202.893 81.0971 203.862 79.5087C204.883 77.8468 205.847 76.2269 206.752 74.6491C207.711 72.9976 208.6 71.5197 209.421 70.2154C210.232 68.848 210.875 67.8329 211.348 67.1703C212.338 65.7082 213.517 64.02 214.886 62.1057C216.244 60.1282 217.686 58.2665 219.212 56.5206C220.792 54.7011 222.413 53.1341 224.075 51.8196C225.728 50.442 227.312 49.6273 228.827 49.3754C230.469 49.1026 231.92 49.4452 233.183 50.4032C234.497 51.2876 235.57 52.2771 236.401 53.3717C236.422 53.4979 236.201 53.7293 235.738 54.0658C235.327 54.3286 234.764 55.0386 234.048 56.1957C233.353 57.479 232.605 59.2252 231.805 61.4344C231.057 63.57 230.34 65.8949 229.655 68.4092C229.023 70.85 228.559 73.3276 228.263 75.8421C227.967 78.3566 227.982 80.5925 228.308 82.5496C228.57 84.128 228.927 85.1066 229.379 85.4856C229.895 85.8541 230.531 85.9753 231.289 85.8494C231.983 85.734 232.683 85.4555 233.388 85.0139C234.094 84.5723 234.667 84.3147 235.109 84.2413C235.383 84.3256 235.619 84.5782 235.819 84.9991C236.071 85.3465 236.224 85.678 236.276 85.9936C235.844 86.5195 235.318 87.0611 234.697 87.6185C234.076 88.1759 233.418 88.7069 232.724 89.2117C232.029 89.7164 231.324 90.158 230.608 90.5365C229.956 90.9044 229.345 91.1356 228.777 91.2301C226.946 91.5344 225.384 91.5022 224.09 91.1333C222.87 90.8172 221.839 90.2749 220.997 89.5064C220.219 88.7275 219.604 87.7592 219.152 86.6017C218.69 85.381 218.343 84.0761 218.112 82.6872C217.986 81.9296 217.908 81.0668 217.877 80.0988C217.845 79.1308 217.914 77.984 218.083 76.6584C218.242 75.2696 218.521 73.6336 218.922 71.7504C219.312 69.8041 219.834 67.4791 220.487 64.7753C220.361 64.7963 219.582 65.3799 218.151 66.5261C216.719 67.6724 215.24 69.3131 213.714 71.4483C211.219 74.7825 209.002 78.038 207.065 81.2146C205.191 84.3808 203.306 87.8731 201.411 91.6916C200.347 93.8796 199.389 95.7257 198.536 97.23C197.756 98.7868 197.025 99.8492 196.341 100.417C194.889 99.8798 193.732 98.9692 192.87 97.6852C192.018 96.4643 191.314 95.1541 190.757 93.7545C190.557 92.5549 190.463 91.0135 190.474 89.1301C190.549 87.2363 190.687 85.1373 190.888 82.8332C191.141 80.4554 191.505 77.962 191.98 75.3528C192.454 72.7437 193.024 70.1188 193.688 67.4782C195.163 61.5237 196.617 56.8054 198.05 53.3234C199.545 49.8309 200.525 47.9164 200.988 47.5799ZM285.653 49.7589C287.295 49.486 288.683 49.8391 289.819 50.8181C290.955 51.7971 291.691 53.2967 292.027 55.317C292.111 55.8221 292.168 56.364 292.2 56.9427C292.221 57.4582 292.199 57.9159 292.136 58.3157C290.758 58.2204 289.274 58.2724 287.685 58.4716C287.768 61.3124 287.246 64.4161 286.119 67.7825C284.981 71.0857 283.47 74.2889 281.585 77.3919C279.69 80.4318 277.521 83.1928 275.079 85.6748C272.637 88.1568 270.116 89.9707 267.517 91.1164C259.026 92.3332 252.471 91.1519 247.854 87.5726C243.31 84.0459 240.298 77.8316 238.819 68.9297C237.738 62.427 237.893 55.9458 239.285 49.4861C240.666 42.9634 242.952 37.0039 246.142 31.6078C249.333 26.2116 253.249 21.668 257.89 17.977C262.585 14.2123 267.71 11.8683 273.265 10.9448C277.622 10.2207 281.151 10.5747 283.855 12.0068C286.621 13.4284 288.283 15.8123 288.839 19.1584C289.206 21.3681 289.011 23.5091 288.252 25.5815C287.557 27.6434 286.193 29.9786 284.161 32.5871C282.636 32.3865 281.247 31.8388 279.996 30.9439C278.733 29.9859 277.855 28.8018 277.362 27.3917C279.246 25.4566 280.52 23.7527 281.183 22.2799C281.847 20.8072 282.026 19.1554 281.722 17.3245C281.239 14.4204 279.262 13.2569 275.789 13.834C272.948 14.3063 270.065 15.8885 267.138 18.5808C264.265 21.1994 261.517 24.7702 258.895 29.2933C255.157 35.6888 252.714 42.0638 251.564 48.4183C250.404 54.7097 250.443 61.5803 251.681 69.03C252.143 71.8079 252.847 74.2861 253.793 76.4644C254.739 78.6428 255.827 80.5056 257.057 82.0528C258.288 83.6 259.618 84.7737 261.049 85.574C262.543 86.3637 264.058 86.6958 265.594 86.5702C267.541 85.7925 269.393 84.4466 271.151 82.5324C272.898 80.5551 274.414 78.3568 275.699 75.9374C277.036 73.4444 278.069 70.8723 278.796 68.2212C279.575 65.4964 279.903 62.9767 279.778 60.6619C278.073 61.3345 276.431 61.9967 274.853 62.6483C273.327 63.2263 271.838 63.636 270.386 63.8774C268.492 64.1922 266.74 63.9968 265.13 63.2911C263.584 62.575 262.422 61.4382 261.644 59.8806C262.675 59.0604 264.207 58.1247 266.238 57.0734C268.332 56.0116 270.563 54.992 272.931 54.0146C275.288 52.9739 277.603 52.0701 279.876 51.303C282.212 50.5254 284.138 50.0107 285.653 49.7589ZM124.609 136.159C124.977 137.2 125.229 137.937 125.366 138.368C125.555 138.726 125.707 139.252 125.823 139.947C126.169 142.03 126.021 144.066 125.378 146.054C124.788 147.969 123.767 149.436 122.314 150.456C120.768 148.962 118.98 147.767 116.95 146.871C114.909 145.913 112.721 145.239 110.385 144.848C108.103 144.384 105.762 144.157 103.363 144.167C100.964 144.176 98.6594 144.365 96.4498 144.732C94.2401 145.099 92.1881 145.635 90.294 146.339C88.4524 146.969 86.8265 147.726 85.4162 148.609C84.0586 149.419 83.0113 150.339 82.2744 151.37C81.6005 152.39 81.3581 153.469 81.547 154.605C81.9672 155.962 83.0557 157.241 84.8122 158.442C86.5583 159.579 88.6516 160.658 91.0922 161.68C93.5222 162.638 96.1733 163.56 99.0453 164.445C101.98 165.32 104.842 166.142 107.63 166.911C111.101 167.891 114.115 168.85 116.672 169.787C119.218 170.662 121.379 171.762 123.157 173.088C124.924 174.352 126.349 175.899 127.432 177.73C128.515 179.562 129.287 181.866 129.749 184.644C130.284 187.864 130.251 190.983 129.65 194.003C129.039 196.959 127.864 199.652 126.127 202.082C124.453 204.501 122.258 206.52 119.543 208.139C116.838 209.822 113.687 210.962 110.088 211.56C106.553 212.148 102.644 212.246 98.3617 211.855C94.0796 211.464 89.9819 210.62 86.0684 209.324C82.2286 208.081 78.9098 206.459 76.1119 204.459C73.3667 202.385 71.7685 199.991 71.3172 197.276C71.1073 196.013 71.187 194.346 71.5561 192.273C71.9884 190.19 72.9732 187.918 74.5104 185.456C75.0146 187.319 76.3973 189.392 78.6584 191.676C80.9827 193.95 84.1909 195.882 88.2831 197.473C92.0913 198.916 95.9049 199.807 99.7241 200.145C103.596 200.41 107.142 200.274 110.362 199.739C113.897 199.152 116.696 198.232 118.759 196.981C120.822 195.73 122.385 194.399 123.448 192.99C124.501 191.518 125.175 190.108 125.47 188.761C125.765 187.415 125.881 186.357 125.819 185.589C125.546 184.337 124.746 183.237 123.421 182.29C122.148 181.269 120.476 180.379 118.404 179.62C116.384 178.788 114.048 178.009 111.397 177.281C108.746 176.554 106 175.843 103.16 175.147C98.8885 174.041 95.1749 172.971 92.0189 171.939C88.9155 170.832 86.2856 169.648 84.1293 168.384C82.0255 167.047 80.3848 165.568 79.2071 163.947C78.0925 162.316 77.3464 160.364 76.9686 158.091C76.3809 154.555 76.898 151.031 78.5199 147.517C80.1417 144.004 82.8365 141.091 86.6042 138.778C88.4776 137.558 90.5192 136.57 92.729 135.813C95.002 135.046 97.2433 134.479 99.453 134.112C103.62 133.419 107.786 133.31 111.953 133.786C116.119 134.261 120.338 135.052 124.609 136.159ZM145.17 201.739C141.508 201.958 138.374 200.857 135.765 198.436C133.157 196.015 131.496 192.658 130.782 188.365C130.363 185.84 130.306 183.156 130.612 180.316C130.919 177.475 131.556 174.677 132.526 171.92C133.484 169.101 134.722 166.398 136.238 163.81C137.754 161.222 139.481 158.924 141.418 156.915C144.46 153.75 147.496 151.915 150.526 151.411C152.725 152.149 155.086 154.059 157.61 157.143C157.926 157.091 158.21 157.044 158.462 157.002C158.704 156.897 158.983 156.818 159.299 156.765C162.645 156.209 164.811 158.898 165.798 164.833C166.459 168.81 166.426 172.709 165.698 176.528C165.023 180.273 163.759 183.792 161.906 187.084C160.116 190.366 157.779 193.285 154.895 195.84C152.063 198.322 148.822 200.288 145.17 201.739ZM145.041 171.105C144.209 172.736 143.462 174.482 142.798 176.344C142.134 178.206 141.602 180.079 141.202 181.962C140.79 183.782 140.532 185.544 140.426 187.249C140.309 188.89 140.356 190.342 140.566 191.605C140.818 193.12 141.312 194.53 142.048 195.835C142.784 197.14 143.483 197.835 144.146 197.919C146.882 196.815 149.276 195.217 151.329 193.124C153.434 190.958 155.124 188.439 156.398 185.567C157.736 182.684 158.605 179.523 159.007 176.083C159.471 172.632 159.394 169.044 158.774 165.319C158.502 163.678 158.192 162.399 157.845 161.484C157.498 160.568 157.046 159.8 156.489 159.179C153.847 160.461 151.574 162.202 149.668 164.4C147.826 166.587 146.284 168.823 145.041 171.105ZM181.289 195.735C177.628 195.954 174.493 194.854 171.885 192.432C169.276 190.011 167.615 186.654 166.902 182.361C166.482 179.836 166.425 177.153 166.732 174.312C167.038 171.471 167.676 168.673 168.645 165.917C169.604 163.097 170.841 160.394 172.357 157.806C173.874 155.219 175.6 152.92 177.537 150.912C180.579 147.746 183.615 145.911 186.646 145.408C188.845 146.145 191.206 148.056 193.73 151.14C194.045 151.087 194.329 151.04 194.582 150.998C194.824 150.893 195.103 150.814 195.418 150.762C198.765 150.205 200.931 152.895 201.917 158.829C202.578 162.807 202.545 166.705 201.817 170.524C201.142 174.269 199.878 177.788 198.025 181.081C196.235 184.362 193.898 187.281 191.014 189.837C188.183 192.319 184.941 194.285 181.289 195.735ZM181.161 165.102C180.329 166.732 179.581 168.478 178.917 170.34C178.254 172.202 177.722 174.075 177.321 175.958C176.91 177.778 176.651 179.54 176.545 181.245C176.429 182.886 176.476 184.338 176.685 185.601C176.937 187.116 177.431 188.526 178.167 189.831C178.903 191.136 179.602 191.831 180.265 191.915C183.001 190.812 185.396 189.213 187.448 187.121C189.554 184.954 191.243 182.435 192.518 179.563C193.855 176.681 194.725 173.519 195.126 170.079C195.59 166.628 195.513 163.04 194.894 159.315C194.621 157.674 194.311 156.395 193.964 155.48C193.618 154.564 193.166 153.796 192.608 153.175C189.967 154.458 187.693 156.198 185.788 158.396C183.946 160.584 182.403 162.819 181.161 165.102ZM213.39 139.794C215.116 140.027 216.852 140.906 218.597 142.432C220.333 143.895 221.721 145.611 222.762 147.579C222.351 149.399 221.618 151.629 220.565 154.27C219.512 156.91 218.469 159.614 217.437 162.381C216.394 165.084 215.462 167.672 214.64 170.144C213.871 172.543 213.512 174.484 213.564 175.967C214.396 174.726 215.296 173.312 216.265 171.723C217.286 170.061 218.249 168.441 219.155 166.863C220.113 165.212 221.003 163.734 221.824 162.43C222.635 161.062 223.277 160.047 223.751 159.385C224.741 157.923 225.92 156.234 227.288 154.32C228.646 152.343 230.089 150.481 231.615 148.735C233.194 146.916 234.815 145.349 236.478 144.034C238.131 142.656 239.714 141.842 241.23 141.59C242.871 141.317 244.323 141.66 245.585 142.618C246.9 143.502 247.973 144.491 248.803 145.586C248.824 145.712 248.603 145.944 248.14 146.28C247.73 146.543 247.167 147.253 246.451 148.41C245.756 149.693 245.008 151.44 244.207 153.649C243.459 155.784 242.743 158.109 242.058 160.624C241.425 163.064 240.961 165.542 240.666 168.057C240.37 170.571 240.385 172.807 240.71 174.764C240.972 176.342 241.33 177.321 241.782 177.7C242.297 178.068 242.934 178.19 243.692 178.064C244.386 177.948 245.086 177.67 245.791 177.228C246.496 176.787 247.07 176.529 247.512 176.456C247.785 176.54 248.022 176.793 248.221 177.214C248.474 177.561 248.626 177.892 248.679 178.208C248.247 178.734 247.721 179.276 247.1 179.833C246.479 180.39 245.821 180.921 245.126 181.426C244.432 181.931 243.726 182.372 243.011 182.751C242.358 183.119 241.748 183.35 241.18 183.445C239.349 183.749 237.786 183.717 236.492 183.348C235.272 183.032 234.241 182.489 233.4 181.721C232.622 180.942 232.007 179.974 231.555 178.816C231.092 177.595 230.746 176.291 230.515 174.902C230.389 174.144 230.31 173.281 230.279 172.313C230.248 171.345 230.317 170.198 230.486 168.873C230.644 167.484 230.924 165.848 231.324 163.965C231.714 162.019 232.236 159.694 232.89 156.99C232.764 157.011 231.985 157.594 230.553 158.741C229.122 159.887 227.643 161.528 226.116 163.663C223.621 166.997 221.405 170.252 219.468 173.429C217.593 176.595 215.709 180.088 213.813 183.906C212.749 186.094 211.791 187.94 210.938 189.444C210.159 191.001 209.427 192.064 208.743 192.631C207.291 192.094 206.134 191.184 205.272 189.9C204.421 188.679 203.716 187.369 203.159 185.969C202.96 184.769 202.866 183.228 202.877 181.345C202.952 179.451 203.089 177.352 203.29 175.048C203.544 172.67 203.908 170.176 204.382 167.567C204.857 164.958 205.426 162.333 206.09 159.693C207.566 153.738 209.02 149.02 210.452 145.538C211.948 142.045 212.927 140.131 213.39 139.794ZM252.54 162.19C252.257 160.485 252.29 157.95 252.638 154.583C253.04 151.143 253.641 147.345 254.442 143.189C255.233 138.97 256.198 134.625 257.336 130.154C258.464 125.62 259.639 121.37 260.861 117.404C262.147 113.427 263.421 109.971 264.685 107.036C265.938 104.038 267.123 101.992 268.239 100.898C269.28 100.92 270.432 101.215 271.695 101.784C273.01 102.279 274.251 102.916 275.418 103.695C276.576 104.411 277.617 105.211 278.542 106.095C279.468 106.98 280.057 107.79 280.309 108.527C277.53 111.713 274.893 115.558 272.397 120.06C269.891 124.499 267.679 129.343 265.762 134.593C263.908 139.832 262.427 145.365 261.32 151.194C260.202 156.959 259.61 162.767 259.545 168.617C258.756 168.553 257.961 168.458 257.162 168.331C256.415 168.131 255.747 167.821 255.158 167.399C254.569 166.978 254.043 166.352 253.58 165.521C253.118 164.689 252.771 163.579 252.54 162.19ZM254.628 187.632C253.871 187.758 253.113 187.689 252.356 187.426C251.609 187.226 250.909 186.92 250.257 186.51C249.678 186.152 249.184 185.715 248.774 185.199C248.374 184.746 248.148 184.362 248.096 184.047C247.97 183.289 247.902 182.295 247.892 181.064C247.882 179.833 247.977 178.649 248.178 177.513C248.368 176.313 248.684 175.288 249.126 174.436C249.558 173.52 250.121 173.005 250.815 172.89C252.583 172.596 254.456 172.933 256.433 173.902C258.464 174.797 260.047 175.929 261.182 177.298C260.561 178.244 260.05 179.27 259.65 180.374C259.26 181.542 258.855 182.615 258.433 183.593C258.023 184.635 257.523 185.529 256.933 186.276C256.343 187.023 255.575 187.475 254.628 187.632Z" fill="#E4EDC1"/>
</svg>
